<?xml version="1.0" standalone="no"?>
<!DOCTYPE svg PUBLIC "-//W3C//DTD SVG 20010904//EN"
 "http://www.w3.org/TR/2001/REC-SVG-20010904/DTD/svg10.dtd">
<svg version="1.0" xmlns="http://www.w3.org/2000/svg"
 width="150.000000pt" height="150.000000pt" viewBox="0 0 150.000000 150.000000"
 preserveAspectRatio="xMidYMid meet">
<metadata>
Created by potrace 1.11, written by Peter Selinger 2001-2013
</metadata>
<g transform="translate(0.000000,150.000000) scale(0.100000,-0.100000)"
fill="#000000" stroke="none">
<path d="M635 1453 c-55 -10 -115 -29 -165 -51 -60 -26 -170 -93 -170 -104 0
-4 7 -13 15 -22 14 -13 20 -12 59 15 270 181 613 151 838 -75 137 -137 201
-297 194 -491 -16 -499 -566 -797 -995 -538 -139 83 -247 222 -296 383 -36
115 -27 294 21 418 15 39 15 45 1 59 -23 23 -34 10 -63 -80 -22 -67 -28 -104
-30 -204 -2 -107 0 -132 23 -205 39 -129 87 -212 178 -304 87 -88 169 -140
288 -182 96 -33 287 -39 388 -13 207 55 372 189 463 375 60 123 76 202 72 346
-5 154 -36 248 -126 381 -89 130 -264 248 -422 282 -61 14 -225 20 -273 10z"/>
<path d="M612 1299 c-103 -26 -187 -74 -263 -150 -218 -217 -221 -575 -6 -793
179 -181 435 -224 666 -110 142 70 258 219 295 378 18 75 13 213 -9 286 -90
293 -391 464 -683 389z"/>
<path d="M184 1250 c-12 -5 -29 -19 -38 -32 -45 -64 9 -138 94 -129 25 3 60
50 60 81 0 56 -66 101 -116 80z"/>
</g>
</svg>
